<svg width="384" height="346" viewBox="0 0 384 346" fill="none" xmlns="http://www.w3.org/2000/svg">
<path d="M348 48H324V28.806C324 19.56 317.052 12 308.58 12H231.396C222.948 12 216 19.56 216 28.806V48H71.646L36 120H60.75V168H56.742L36.75 192L56.742 216H61.122V228.888C61.122 232.146 63.636 234.78 66.75 234.78C76.056 234.78 83.628 242.724 83.628 252.486C83.628 262.248 76.056 270.192 66.75 270.192C57.444 270.192 49.872 262.248 49.872 252.486C49.872 249.228 47.352 246.594 44.244 246.594C41.13 246.594 38.616 249.228 38.616 252.486C38.628 268.77 51.24 282 66.75 282C82.26 282 94.878 268.77 94.878 252.492C94.878 238.242 85.2 226.314 72.378 223.584V216H76.752L96.75 192L76.752 168H72.75V120H216V163.194C216 171.162 221.166 177.84 228 179.556V372H243.75V336L296.25 354L243.75 372H312V179.55C318.84 177.84 324 171.162 324 163.194V120H348V102H335.532L348 78.33V48ZM63.858 102L77.874 73.206L93.03 102H63.858ZM90.39 66H115.308L102.852 89.67L90.39 66ZM112.674 102L125.136 78.33L137.604 102H112.674ZM134.964 66H159.882L147.42 89.67L134.964 66ZM157.254 102L169.71 78.33L182.166 102H157.254ZM179.538 66H204.456L192 89.67L179.538 66ZM216 102H201.822L214.278 78.33L216 81.6V102ZM296.25 336L243.75 318L296.25 300V336ZM243.75 300V264L296.25 282.012L243.75 300ZM296.25 264L243.75 246L296.25 228V264ZM243.75 228V192.012L296.25 210L243.75 228ZM296.25 192.012L261.24 180H296.25V192.012ZM305.25 91.488C305.25 97.266 301.194 102 296.25 102H242.238C237.294 102 233.25 97.266 233.25 91.488V40.548C233.25 34.734 237.294 30 242.238 30H296.25C301.194 30 305.25 34.734 305.25 40.548V91.488ZM325.71 89.67L324 86.418V66H338.166L325.71 89.67Z" fill="white" fill-opacity="0.12"/>
</svg>
