<svg width="177" height="32" viewBox="0 0 177 32" fill="none" xmlns="http://www.w3.org/2000/svg">
<path d="M15.8179 32C14.2405 32 12.6923 31.794 11.1733 31.3821C9.68354 30.9701 8.25219 30.3375 6.87926 29.4841C5.53554 28.6014 4.35248 27.5421 3.33008 26.3062C2.30769 25.0703 1.48977 23.5696 0.876336 21.8041C0.292111 20.0092 0 18.0671 0 15.9779C0 12.594 0.788703 9.66621 2.36611 7.19449C3.94352 4.72276 5.90068 2.91311 8.23758 1.76552C10.6037 0.617934 13.1305 0.0441425 15.8179 0.0441425C18.739 0.0441425 21.295 0.617934 23.4859 1.76552C25.3554 2.73656 26.9182 4.10483 28.1743 5.87035C29.4304 7.63587 30.1607 9.6662 30.3651 11.9614H22.2152C21.0759 9.07769 18.9581 7.63587 15.8617 7.63587C13.6125 7.63587 11.7575 8.40091 10.297 9.93103C8.86562 11.4611 8.14995 13.4915 8.14995 16.0221C8.14995 18.3467 8.88023 20.3329 10.3408 21.9807C11.8014 23.5991 13.6271 24.4083 15.8179 24.4083C19.148 24.4083 21.3681 22.8046 22.4781 19.5972H30.5404C30.4236 21.8041 29.7517 23.8345 28.5248 25.6883C27.2979 27.5126 25.7059 28.9986 23.7488 30.1462C21.6748 31.3821 19.0312 32 15.8179 32Z" fill="white"/>
<path d="M76.911 0.0441146V7.34831H65.7375L65.7377 12.3699H75.9909V19.6414H65.7377L65.7375 24.6958H77.3054V32H57.763V0.0441146H76.911Z" fill="white"/>
<path d="M87.525 15.4482C87.525 17.2726 88.0654 18.6703 89.1462 19.6414C90.2562 20.6124 91.8044 21.1273 93.7908 21.1862V9.75445C91.8336 9.75445 90.3 10.2841 89.19 11.3434C88.08 12.4027 87.525 13.771 87.525 15.4482ZM101.802 32H93.7032V28.4689C89.526 28.3512 86.1082 27.1742 83.45 24.9379C80.821 22.6722 79.5065 19.5089 79.5065 15.4482C79.5065 11.4464 80.821 8.32734 83.45 6.09101C86.1082 3.82527 89.5113 2.63354 93.6593 2.51584V0.0441146H101.897V2.51584C106.045 2.63354 109.433 3.82527 112.062 6.09101C114.721 8.32734 116.05 11.4464 116.05 15.4482C116.05 19.5089 114.721 22.6722 112.062 24.9379C109.433 27.1742 106.03 28.3512 101.853 28.4689L101.802 32ZM108.031 15.4482C108.031 13.771 107.476 12.4027 106.366 11.3434C105.256 10.2841 103.723 9.75445 101.765 9.75445V21.1862C103.752 21.1273 105.285 20.6124 106.366 19.6414C107.476 18.6703 108.031 17.2726 108.031 15.4482Z" fill="white"/>
<path d="M139.692 32L137.559 27.0124H125.422L123.258 32H115.432V29.749L128.752 6.96583e-06H134.229L147.55 29.749V32H139.692ZM135.062 20.3917L131.469 12.0938L127.92 20.3917H135.062Z" fill="white"/>
<path d="M176.213 0V32H168.195V19.4094H158.73V32H150.712V0H158.73V12.1234H168.195V0H176.213Z" fill="white"/>
<path d="M54.1672 21.0653H51.9308C51.9131 21.0847 51.8948 21.1036 51.8781 21.1239C51.6972 21.344 51.5855 21.6139 51.5558 21.8993C51.5263 22.1849 51.5805 22.474 51.7121 22.7304C51.8436 22.9867 52.047 23.1994 52.2961 23.3417C52.5451 23.4839 52.8294 23.55 53.1135 23.5312C53.3976 23.5123 53.6695 23.409 53.8947 23.2353C54.1197 23.0615 54.2885 22.8246 54.3801 22.5536L56.4465 23.2831C56.2174 23.961 55.7946 24.5538 55.2316 24.9882C54.6686 25.4226 53.99 25.6794 53.2795 25.7265C52.5689 25.7736 51.8583 25.6087 51.2355 25.2528C50.6129 24.8971 50.1054 24.3662 49.7765 23.7255C49.4478 23.0847 49.3111 22.3621 49.3849 21.6483C49.4589 20.9345 49.7402 20.2603 50.1926 19.7099C50.5213 19.3099 50.9305 18.9892 51.3908 18.7646V11.163L46.5646 13.9706V31.9999H38.3478V18.7519L32.8693 21.9403V12.4355L54.1662 0.0438565L54.1672 21.0653Z" fill="white"/>
</svg>
