<svg width="25" height="24" viewBox="0 0 25 24" fill="none" xmlns="http://www.w3.org/2000/svg">
<path d="M8.71 13.89L7.5 23L12.5 20L17.5 23L16.29 13.88M19.5 8C19.5 11.866 16.366 15 12.5 15C8.63401 15 5.5 11.866 5.5 8C5.5 4.13401 8.63401 1 12.5 1C16.366 1 19.5 4.13401 19.5 8Z" stroke="black" stroke-opacity="0.6" stroke-width="2" stroke-linecap="round" stroke-linejoin="round"/>
<path d="M8.71 13.89L7.5 23L12.5 20L17.5 23L16.29 13.88M19.5 8C19.5 11.866 16.366 15 12.5 15C8.63401 15 5.5 11.866 5.5 8C5.5 4.13401 8.63401 1 12.5 1C16.366 1 19.5 4.13401 19.5 8Z" stroke="url(#paint0_linear_43_97)" stroke-width="2" stroke-linecap="round" stroke-linejoin="round"/>
<defs>
<linearGradient id="paint0_linear_43_97" x1="8.07471" y1="22.9999" x2="15.5854" y2="12.885" gradientUnits="userSpaceOnUse">
<stop stop-color="#5386FF" stop-opacity="0.63"/>
<stop offset="1" stop-color="#1E2FEB" stop-opacity="0.91"/>
</linearGradient>
</defs>
</svg>
