<svg width="22" height="21" viewBox="0 0 22 21" fill="none" xmlns="http://www.w3.org/2000/svg">
<path d="M13.1994 5.29998C13.0161 5.48691 12.9135 5.73823 12.9135 5.99998C12.9135 6.26173 13.0161 6.51305 13.1994 6.69998L14.7994 8.29998C14.9863 8.48321 15.2376 8.58584 15.4994 8.58584C15.7611 8.58584 16.0124 8.48321 16.1994 8.29998L19.9694 4.52998C20.4722 5.64117 20.6245 6.87921 20.4058 8.07913C20.1872 9.27904 19.6081 10.3838 18.7456 11.2463C17.8832 12.1087 16.7784 12.6878 15.5785 12.9064C14.3786 13.1251 13.1406 12.9728 12.0294 12.47L5.11937 19.38C4.72154 19.7778 4.18198 20.0013 3.61937 20.0013C3.05676 20.0013 2.51719 19.7778 2.11937 19.38C1.72154 18.9822 1.49805 18.4426 1.49805 17.88C1.49805 17.3174 1.72154 16.7778 2.11937 16.38L9.02937 9.46998C8.52653 8.35879 8.37428 7.12075 8.59291 5.92083C8.81154 4.72092 9.39065 3.61614 10.2531 2.7537C11.1155 1.89127 12.2203 1.31215 13.4202 1.09352C14.6201 0.874895 15.8582 1.02714 16.9694 1.52998L13.2094 5.28998L13.1994 5.29998Z" stroke="black" stroke-opacity="0.6" stroke-width="2" stroke-linecap="round" stroke-linejoin="round"/>
<path d="M13.1994 5.29998C13.0161 5.48691 12.9135 5.73823 12.9135 5.99998C12.9135 6.26173 13.0161 6.51305 13.1994 6.69998L14.7994 8.29998C14.9863 8.48321 15.2376 8.58584 15.4994 8.58584C15.7611 8.58584 16.0124 8.48321 16.1994 8.29998L19.9694 4.52998C20.4722 5.64117 20.6245 6.87921 20.4058 8.07913C20.1872 9.27904 19.6081 10.3838 18.7456 11.2463C17.8832 12.1087 16.7784 12.6878 15.5785 12.9064C14.3786 13.1251 13.1406 12.9728 12.0294 12.47L5.11937 19.38C4.72154 19.7778 4.18198 20.0013 3.61937 20.0013C3.05676 20.0013 2.51719 19.7778 2.11937 19.38C1.72154 18.9822 1.49805 18.4426 1.49805 17.88C1.49805 17.3174 1.72154 16.7778 2.11937 16.38L9.02937 9.46998C8.52653 8.35879 8.37428 7.12075 8.59291 5.92083C8.81154 4.72092 9.39065 3.61614 10.2531 2.7537C11.1155 1.89127 12.2203 1.31215 13.4202 1.09352C14.6201 0.874895 15.8582 1.02714 16.9694 1.52998L13.2094 5.28998L13.1994 5.29998Z" stroke="url(#paint0_linear_43_110)" stroke-width="2" stroke-linecap="round" stroke-linejoin="round"/>
<defs>
<linearGradient id="paint0_linear_43_110" x1="2.59028" y1="20.0013" x2="18.6007" y2="0.336826" gradientUnits="userSpaceOnUse">
<stop stop-color="#5386FF" stop-opacity="0.63"/>
<stop offset="1" stop-color="#1E2FEB" stop-opacity="0.91"/>
</linearGradient>
</defs>
</svg>
