<svg width="18" height="23" viewBox="0 0 18 23" fill="none" xmlns="http://www.w3.org/2000/svg">
<path d="M17 12.5004C17 17.5004 13.5 20.0005 9.34 21.4505C9.12216 21.5243 8.88554 21.5207 8.67 21.4405C4.5 20.0005 1 17.5004 1 12.5004V5.50045C1 5.23523 1.10536 4.98088 1.29289 4.79334C1.48043 4.60581 1.73478 4.50045 2 4.50045C4 4.50045 6.5 3.30045 8.24 1.78045C8.45185 1.59945 8.72135 1.5 9 1.5C9.27865 1.5 9.54815 1.59945 9.76 1.78045C11.51 3.31045 14 4.50045 16 4.50045C16.2652 4.50045 16.5196 4.60581 16.7071 4.79334C16.8946 4.98088 17 5.23523 17 5.50045V12.5004Z" stroke="black" stroke-opacity="0.6" stroke-width="2" stroke-linecap="round" stroke-linejoin="round"/>
<path d="M17 12.5004C17 17.5004 13.5 20.0005 9.34 21.4505C9.12216 21.5243 8.88554 21.5207 8.67 21.4405C4.5 20.0005 1 17.5004 1 12.5004V5.50045C1 5.23523 1.10536 4.98088 1.29289 4.79334C1.48043 4.60581 1.73478 4.50045 2 4.50045C4 4.50045 6.5 3.30045 8.24 1.78045C8.45185 1.59945 8.72135 1.5 9 1.5C9.27865 1.5 9.54815 1.59945 9.76 1.78045C11.51 3.31045 14 4.50045 16 4.50045C16.2652 4.50045 16.5196 4.60581 16.7071 4.79334C16.8946 4.98088 17 5.23523 17 5.50045V12.5004Z" stroke="url(#paint0_linear_42_1612)" stroke-width="2" stroke-linecap="round" stroke-linejoin="round"/>
<defs>
<linearGradient id="paint0_linear_42_1612" x1="1.91954" y1="21.5034" x2="19.1257" y2="4.59974" gradientUnits="userSpaceOnUse">
<stop stop-color="#5386FF" stop-opacity="0.63"/>
<stop offset="1" stop-color="#1E2FEB" stop-opacity="0.91"/>
</linearGradient>
</defs>
</svg>
