<svg width="300" height="300" viewBox="0 0 300 300" fill="none" xmlns="http://www.w3.org/2000/svg">
<rect width="300" height="300" rx="48" fill="#4B5ACD"/>
<path d="M224.212 189.798H206.759C206.621 189.949 206.478 190.096 206.348 190.255C204.936 191.97 204.064 194.072 203.833 196.297C203.602 198.522 204.026 200.774 205.052 202.772C206.079 204.77 207.666 206.427 209.61 207.536C211.553 208.644 213.772 209.159 215.989 209.012C218.206 208.865 220.328 208.06 222.086 206.706C223.841 205.353 225.159 203.506 225.873 201.395L242 207.079C240.212 212.362 236.913 216.98 232.519 220.365C228.126 223.75 222.829 225.751 217.284 226.118C211.739 226.485 206.193 225.2 201.333 222.427C196.474 219.655 192.513 215.519 189.947 210.526C187.381 205.533 186.314 199.902 186.891 194.341C187.468 188.779 189.664 183.525 193.193 179.237C195.759 176.12 198.953 173.621 202.545 171.871V112.64L164.881 134.517V275H100.755V171.772L58 196.616V122.555L224.204 26L224.212 189.798Z" fill="white"/>
</svg>

